#!OML:ASF H:\LiuWeirdWalks\Patient Classification 1\Patient 1\Session 1\male.ASF
:FULLY-SPECIFIED
:DEGREES
403
root 1.02749 17.174 12.0268 5.53402 5.02558 3.79288
lowerback 7.06243 -3.17832 -2.66877
upperback -1.62803 -4.21955 5.18213
thorax -5.07911 -1.92903 7.43123
lowerneck -17.6559 6.23809 9.26492
upperneck 6.42689 7.53253 -11.1722
head 5.59559 3.14949 -4.27947
rclavicle 2.88238e-014 -1.43125e-014
rhumerus -34.6862 -9.53559 -73.7733
rradius 27.4305
rwrist -7.34086
rhand -21.9035 -4.6329
rfingers 7.12502
rthumb 4.50198 -34.5651
lclavicle 2.88238e-014 -1.43125e-014
lhumerus -42.8034 -15.8031 97.9709
lradius 41.7271
lwrist -0.657302
lhand -9.40256 -4.9962
lfingers 7.12502
lthumb 16.5589 24.3173
rfemur -38.3015 -4.92835 15.587
rtibia 54.1947
rfoot -12.1555 -14.3614
rtoes -6.58467
lfemur 15.7696 -3.69021 -21.1894
ltibia 29.4645
lfoot 6.31791 3.76748
ltoes -19.5013
404
root 1.00811 17.3113 12.2327 5.53287 6.01763 3.42589
lowerback 6.92808 -3.11471 -2.03672
upperback -1.67085 -4.07358 5.17765
thorax -5.11197 -1.87321 7.04244
lowerneck -17.9725 6.1568 9.03342
upperneck 6.55554 7.47266 -11.2514
head 5.67649 3.09689 -4.26992
rclavicle 2.82274e-014 2.22639e-014
rhumerus -34.9329 -9.04477 -74.1373
rradius 27.9732
rwrist -7.59251
rhand -22.2961 -4.89103
rfingers 7.12502
rthumb 4.12287 -34.8309
lclavicle 2.82274e-014 2.22639e-014
lhumerus -43.5844 -16.5043 98.6061
lradius 41.4397
lwrist -2.6988
lhand -7.51831 -5.27597
lfingers 7.12502
lthumb 18.3723 23.8764
rfemur -36.3929 -5.70615 16.0588
rtibia 52.4758
rfoot -11.984 -14.3181
rtoes -7.0351
lfemur 14.0215 -3.5251 -20.0693
ltibia 32.0368
lfoot 7.25535 2.64047
ltoes -18.2145
405
root 0.988184 17.4588 12.4348 5.49519 7.08501 3.03855
lowerback 6.77623 -2.93732 -1.33237
upperback -1.65901 -3.77135 5.18351
thorax -5.09734 -1.74424 6.60493
lowerneck -18.5142 5.90449 8.43251
upperneck 6.74276 7.24448 -11.2029
head 5.77603 2.95297 -4.17656
rclavicle 3.1408e-014 -1.43125e-014
rhumerus -35.2315 -8.73741 -74.2966
rradius 28.6344
rwrist -7.9178
rhand -22.5176 -4.98156
rfingers 7.12502
rthumb 3.90894 -34.9254
lclavicle 3.1408e-014 -1.43125e-014
lhumerus -44.2354 -17.3988 99.3337
lradius 41.2925
lwrist -4.52743
lhand -5.53807 -5.48793
lfingers 7.12502
lthumb 20.2764 23.4737
rfemur -34.3614 -6.43977 16.5344
rtibia 50.5473
rfoot -11.5926 -14.3207
rtoes -7.61479
lfemur 12.2206 -3.35134 -18.9364
ltibia 34.5937
lfoot 7.57585 2.15303
ltoes -17.4279
406
root 0.967811 17.6145 12.6338 5.41082 8.22591 2.64881
lowerback 6.61571 -2.53205 -0.488469
upperback -1.58574 -3.15532 5.20745
thorax -5.04677 -1.46441 6.07369
lowerneck -19.4564 5.30231 7.1157
upperneck 7.1253 6.68848 -10.8853
head 5.93649 2.63276 -3.91565
rclavicle 1.78906e-015 3.02153e-014
rhumerus -35.628 -8.92784 -73.9747
rradius 29.393
rwrist -8.27468
rhand -22.5683 -4.93371
rfingers 7.12502
rthumb 3.86001 -34.8785
lclavicle 1.78906e-015 3.02153e-014
lhumerus -44.7203 -18.7788 100.391
lradius 41.2324
lwrist -6.05207
lhand -3.45562 -5.56674
lfingers 7.12502
lthumb 22.2766 23.1693
rfemur -32.2214 -7.12077 16.993
rtibia 48.4596
rfoot -10.984 -14.3723
rtoes -8.35966
lfemur 10.4047 -3.17388 -17.8211
ltibia 37.0849
lfoot 7.38693 2.31931
ltoes -17.0481
407
root 0.947048 17.7761 12.8294 5.27626 9.39333 2.31254
lowerback 6.49299 -2.05672 0.313088
upperback -1.50313 -2.45414 5.20002
thorax -4.9981 -1.1408 5.52769
lowerneck -20.3746 4.57421 5.65003
upperneck 7.54522 6.0283 -10.5093
head 6.09925 2.26121 -3.62737
rclavicle -1.86858e-014 -3.97569e-014
rhumerus -36.1006 -9.31236 -73.5004
rradius 30.1207
rwrist -8.56566
rhand -22.4415 -4.66504
rfingers 7.12502
rthumb 3.98245 -34.6076
lclavicle -1.86858e-014 -3.97569e-014
lhumerus -45.1971 -20.2342 101.437
lradius 41.2931
lwrist -7.21485
lhand -1.31926 -5.50139
lfingers 7.12502
lthumb 24.3262 22.9749
rfemur -30.011 -7.69807 17.3682
rtibia 46.2794
rfoot -10.1329 -14.4682
rtoes -9.32606
lfemur 8.60466 -2.97028 -16.8066
ltibia 39.4612
lfoot 6.85146 3.0324
ltoes -16.8333
408
root 0.925788 17.9418 13.022 5.10655 10.5637 2.0525
lowerback 6.41536 -1.66092 0.924088
upperback -1.40073 -1.88079 5.14427
thorax -4.92021 -0.875994 5.05448
lowerneck -21.1946 3.95483 4.48912
upperneck 7.95296 5.47904 -10.2357
head 6.27516 1.94697 -3.41248
rclavicle 1.51076e-014 2.38542e-014
rhumerus -36.4902 -9.58746 -73.2036
rradius 30.7511
rwrist -8.76129
rhand -22.2046 -4.26136
rfingers 7.12502
rthumb 4.21122 -34.1995
lclavicle 1.51076e-014 2.38542e-014
lhumerus -45.63 -21.4081 102.139
lradius 41.5014
lwrist -7.88494
lhand 0.782378 -5.26044
lfingers 7.12502
lthumb 26.3395 22.9305
rfemur -27.7853 -8.13975 17.6364
rtibia 44.0796
rfoot -9.03747 -14.611
rtoes -10.4936
lfemur 6.82296 -2.73718 -15.9295
ltibia 41.6837
lfoot 6.07907 4.0515
ltoes -16.4933
409
root 0.904489 18.1097 13.2114 4.9175 11.6832 1.87226
lowerback 6.37093 -1.2121 1.4478
upperback -1.29241 -1.2474 5.04051
thorax -4.84482 -0.578935 4.57647
lowerneck -21.9672 3.27412 3.29587
upperneck 8.38989 4.87739 -9.92173
head 6.45571 1.60954 -3.18911
rclavicle -1.47101e-014 4.77083e-015
rhumerus -36.8912 -10.0106 -72.8333
rradius 31.2903
rwrist -8.89386
rhand -21.8751 -3.77376
rfingers 7.12502
rthumb 4.52939 -33.7053
lclavicle -1.47101e-014 4.77083e-015
lhumerus -46.0409 -22.5938 102.75
lradius 41.8063
lwrist -8.09109
lhand 2.80573 -4.82713
lfingers 7.12502
lthumb 28.2749 23.059
rfemur -25.6122 -8.42045 17.8016
rtibia 41.9373
rfoot -7.67165 -14.7811
rtoes -11.8883
lfemur 5.05736 -2.44041 -15.2081
ltibia 43.7261
lfoot 5.19919 5.03866
ltoes -15.7302
410
root 0.883208 18.2784 13.3975 4.74359 12.7063 1.75548
lowerback 6.32046 -0.918689 1.70746
upperback -1.20468 -0.846696 4.89572
thorax -4.75691 -0.390282 4.23067
lowerneck -22.4091 2.87708 2.67767
upperneck 8.71107 4.52922 -9.7942
head 6.58945 1.41019 -3.09142
rclavicle 2.32578e-014 1.43125e-014
rhumerus -37.1963 -10.0323 -72.8372
rradius 31.7169
rwrist -8.96821
rhand -21.4948 -3.2124
rfingers 7.12502
rthumb 4.89655 -33.1358
lclavicle 2.32578e-014 1.43125e-014
lhumerus -46.4555 -23.198 102.828
lradius 42.2417
lwrist -7.94327
lhand 4.64632 -4.27528
lfingers 7.12502
lthumb 30.0326 23.3061
rfemur -23.5802 -8.52297 17.8926
rtibia 39.9163
rfoot -6.05507 -14.9678
rtoes -13.4227
lfemur 3.28113 -2.0579 -14.6368
ltibia 45.581
lfoot 4.24608 5.84287
ltoes -14.8632
411
root 0.862596 18.4462 13.58 4.59201 13.6084 1.70338
lowerback 6.26138 -0.7273 1.74967
upperback -1.1213 -0.602736 4.71671
thorax -4.65248 -0.27392 3.98923
lowerneck -22.6217 2.70602 2.49522
upperneck 8.90851 4.37301 -9.80692
head 6.6743 1.31626 -3.0869
rclavicle 5.1684e-015 9.54166e-015
rhumerus -37.3851 -9.7559 -73.1153
rradius 32.0493
rwrist -9.02156
rhand -21.0711 -2.6782
rfingers 7.12502
rthumb 5.30568 -32.5918
lclavicle 5.1684e-015 9.54166e-015
lhumerus -46.8268 -23.3553 102.47
lradius 42.7665
lwrist -7.49739
lhand 6.2218 -3.67067
lfingers 7.12502
lthumb 31.5346 23.6275
rfemur -21.7317 -8.49098 17.9109
rtibia 38.0668
rfoot -4.22186 -15.1376
rtoes -15.0076
lfemur 1.50191 -1.58912 -14.2294
ltibia 47.2503
lfoot 3.29232 6.3848
ltoes -14.0923
412
root 0.844772 18.6122 13.7587 4.46618 14.3799 1.67406
lowerback 6.19598 -0.413658 1.85538
upperback -1.03836 -0.19248 4.50315
thorax -4.55193 -0.0769628 3.66
lowerneck -22.822 2.40919 2.10792
upperneck 9.1259 4.09163 -9.69006
head 6.7482 1.16584 -3.02263
rclavicle 2.50469e-014 -3.18055e-014
rhumerus -37.6133 -9.65288 -73.2408
rradius 32.3553
rwrist -9.14072
rhand -20.6494 -2.24762
rfingers 7.12502
rthumb 5.71283 -32.1506
lclavicle 2.50469e-014 -3.18055e-014
lhumerus -47.1752 -23.6745 102.145
lradius 43.3317
lwrist -6.7729
lhand 7.46215 -3.0642
lfingers 7.12502
lthumb 32.7155 23.9956
rfemur -20.0995 -8.40437 17.896
rtibia 36.4134
rfoot -2.219 -15.2616
rtoes -16.5316
lfemur -0.27614 -1.03934 -13.9543
ltibia 48.7476
lfoot 2.35392 6.66718
ltoes -13.5971
413
root 0.83012 18.7749 13.9338 4.35644 15.0036 1.62985
lowerback 6.10812 -0.166925 1.89365
upperback -1.01117 0.123977 4.27927
thorax -4.48808 0.0754992 3.36991
lowerneck -22.6253 2.27932 2.03082
upperneck 9.16918 3.94231 -9.67472
head 6.71985 1.09734 -3.02362
rclavicle -9.34288e-015 5.88403e-014
rhumerus -37.8495 -9.23053 -73.5553
rradius 32.6007
rwrist -9.33079
rhand -20.24 -1.94083
rfingers 7.12502
rthumb 6.10812 -31.8328
lclavicle -9.34288e-015 5.88403e-014
lhumerus -47.6273 -23.6118 101.54
lradius 43.9861
lwrist -5.83606
lhand 8.35611 -2.52571
lfingers 7.12502
lthumb 33.5656 24.3534
rfemur -18.6896 -8.2988 17.8818
rtibia 34.966
rfoot -0.0881227 -15.354
rtoes -17.8755
lfemur -2.04562 -0.395997 -13.7713
ltibia 50.0869
lfoot 1.46253 6.73017
ltoes -13.5333
414
root 0.819042 18.9328 14.1049 4.24197 15.5118 1.54856
lowerback 6.04215 0.209774 2.09511
upperback -0.988316 0.626939 4.04008
thorax -4.44376 0.316263 2.95514
lowerneck -22.4546 1.97348 1.63304
upperneck 9.28332 3.62727 -9.47033
head 6.69801 0.951017 -2.93105
rclavicle -1.2921e-015 -6.36111e-015
rhumerus -38.1293 -9.00624 -73.6698
rradius 32.8142
rwrist -9.59032
rhand -19.8269 -1.7461
rfingers 7.12502
rthumb 6.50694 -31.6261
lclavicle -1.2921e-015 -6.36111e-015
lhumerus -48.0824 -23.7846 101.044
lradius 44.6845
lwrist -4.65412
lhand 8.98829 -2.02489
lfingers 7.12502
lthumb 34.1661 24.7218
rfemur -17.4687 -8.2192 17.8793
rtibia 33.7172
rfoot 2.12095 -15.4543
rtoes -18.9177
lfemur -3.79448 0.307773 -13.6556
ltibia 51.2894
lfoot 0.582583 6.65882
ltoes -13.8187
415
root 0.812333 19.0839 14.2728 4.11317 15.9255 1.43652
lowerback 5.99263 0.563594 2.33578
upperback -0.971069 1.10249 3.7921
thorax -4.40498 0.542352 2.51378
lowerneck -22.1914 1.72334 1.31818
upperneck 9.37662 3.35771 -9.26326
head 6.66008 0.832577 -2.84456
rclavicle 2.8625e-014 3.33958e-014
rhumerus -38.3474 -8.64337 -73.8516
rradius 32.9639
rwrist -9.88041
rhand -19.3708 -1.64741
rfingers 7.12502
rthumb 6.94724 -31.5134
lclavicle 2.8625e-014 3.33958e-014
lhumerus -48.5396 -23.8067 100.386
lradius 45.4594
lwrist -3.27742
lhand 9.38777 -1.5867
lfingers 7.12502
lthumb 34.5454 25.0743
rfemur -16.3982 -8.20561 17.8699
rtibia 32.6643
rfoot 4.35726 -15.5686
rtoes -19.5796
lfemur -5.5083 1.06025 -13.6131
ltibia 52.371
lfoot -0.320473 6.53083
ltoes -14.3633
416
root 0.808566 19.2263 14.4378 3.9577 16.2581 1.27902
lowerback 5.93852 0.715903 2.45188
upperback -0.883895 1.29594 3.54491
thorax -4.27982 0.632162 2.1723
lowerneck -21.9963 1.82174 1.61469
upperneck 9.37096 3.40529 -9.28622
head 6.63416 0.870513 -2.89363
rclavicle -5.06901e-015 4.77083e-015
rhumerus -38.1753 -7.83319 -74.4502
rradius 32.9335
rwrist -10.1002
rhand -18.8398 -1.5431
rfingers 7.12502
rthumb 7.45978 -31.3916
lclavicle -5.06901e-015 4.77083e-015
lhumerus -48.8461 -23.2724 99.1572
lradius 46.3672
lwrist -1.67698
lhand 9.60998 -1.18225
lfingers 7.12502
lthumb 34.7563 25.4304
rfemur -15.44 -8.18481 17.8755
rtibia 31.8113
rfoot 6.50729 -15.7775
rtoes -19.7703
lfemur -7.19075 1.85765 -13.6126
ltibia 53.3514
lfoot -1.24309 6.38701
ltoes -14.8799
